# xmcd
#
# Track frame offsets:
# 150
# 19054
# 36325
# 53650
# 74109
# 90783
# 103987
# 119703
# 136264
# 154530
#
# Disc length: 2282 seconds
#
# Revision: 0
# Processed by: cddbd v1.5.1PL2 Copyright (c) Steve Scherf et al.
# Submitted via: Audion 3.0.2 (http://www.panic.com/audion/)
#
DISCID=8608e80a
DTITLE=Mia Johnson - Driver
DYEAR=1900
DGENRE=
TTITLE0=Wakin' Up
TTITLE1=You Just Don't
TTITLE2=Sexy
TTITLE3=Closer
TTITLE4=Sailor
TTITLE5=Never Will
TTITLE6=She Wishes
TTITLE7=Mistake
TTITLE8=Silver Moon
TTITLE9=Hello Again
EXTD=
EXTT0=
EXTT1=
EXTT2=
EXTT3=
EXTT4=
EXTT5=
EXTT6=
EXTT7=
EXTT8=
EXTT9=
PLAYORDER=
